<svg width="520" height="180" viewBox="0 0 520 180" fill="none" xmlns="http://www.w3.org/2000/svg">
  <defs>
    <linearGradient id="bag_gradient" x1="38" y1="20" x2="150" y2="150" gradientUnits="userSpaceOnUse">
      <stop stop-color="#34D399"/>
      <stop offset="1" stop-color="#10B981"/>
    </linearGradient>
  </defs>
  <rect x="20" y="20" width="140" height="140" rx="28" fill="#111827"/>
  <path d="M75 54C75 54 81 66 90 66C99 66 105 54 105 54" stroke="#F59E0B" stroke-width="8" stroke-linecap="round"/>
  <path d="M70 76H110" stroke="#F59E0B" stroke-width="8" stroke-linecap="round"/>
  <path d="M90 76C64 76 46 98 46 126C46 154 65 168 90 168C115 168 134 154 134 126C134 98 116 76 90 76Z" fill="url(#bag_gradient)"/>
  <circle cx="90" cy="124" r="22" fill="white"/>
  <path d="M90 111V137" stroke="#10B981" stroke-width="6" stroke-linecap="round"/>
  <path d="M100 115C100 111 96 108 90 108C84 108 80 111 80 115C80 119 84 121 90 123C96 125 100 127 100 132C100 136 96 140 90 140C84 140 80 136 80 132" stroke="#10B981" stroke-width="4.5" stroke-linecap="round"/>
  <text x="190" y="95" fill="#111827" font-family="Inter, Arial, Helvetica, sans-serif" font-size="42" font-weight="700" letter-spacing="-0.5">FinanzApp</text>
  <text x="192" y="125" fill="#6B7280" font-family="Inter, Arial, Helvetica, sans-serif" font-size="16" font-weight="500" letter-spacing="0.2">Gestión de finanzas personales</text>
</svg>
